<?xml version="1.0" encoding="utf-8"?>
<!-- Generator: Adobe Illustrator 19.2.1, SVG Export Plug-In . SVG Version: 6.00 Build 0)  -->
<svg version="1.1" id="layer" xmlns="http://www.w3.org/2000/svg" xmlns:xlink="http://www.w3.org/1999/xlink" x="0px" y="0px"
	 viewBox="0 0 652 652" style="enable-background:new 0 0 652 652;" xml:space="preserve">
<style type="text/css">
	.st0{fill:#4488C7;}
	.st1{fill:#4388C8;}
	.st2{fill:#A1C3E3;}
</style>
<polygon class="st0" points="606.9,309.9 606.9,341.1 599.1,341.1 599.1,309.9 585,309.9 585,302.2 621.5,302.2 621.5,309.9 "/>
<polygon class="st0" points="560.8,341.1 560.8,324.8 539.6,324.8 539.6,341.1 531.9,341.1 531.9,302.2 539.6,302.2 539.6,316.9 
	560.8,316.9 560.8,302.2 568.5,302.2 568.5,341.1 "/>
<path class="st0" d="M494.7,342.4c-12.3,0-23.6-7.4-23.6-20.8s11.2-20.8,23.5-20.8c6.5-0.1,12.8,1.6,18.3,5l-4.6,7.8
	c-4.1-3.1-9.1-4.8-14.2-4.9c-7.7,0-15.2,4.4-15.2,12.8c0,8.4,7.1,12.9,14.8,12.9c4.2,0.1,8.4-1.2,11.9-3.5v-4.7h-9.5v-7.3h17.5v16.3
	c-5.2,4.7-12,7.2-19,7.1L494.7,342.4z"/>
<path class="st0" d="M451.8,336.2c-3.7,4.7-10.6,6.2-16.3,6.2c-10.8,0-18.3-5.1-18.3-16.6v-23.7h7.8v23.7c0,8,5.1,8.5,11.7,8.5
	c2.6,0,5.2-0.6,7.5-1.7c2.2-1.2,2.8-2.8,2.8-6.9v-23.6h7.7v23.7C455.1,329.6,454.1,333.3,451.8,336.2L451.8,336.2z"/>
<path class="st0" d="M374.6,342.4c-12.3,0-23.8-7.8-23.8-20.9s11.8-20.6,23.9-20.6c12.1,0,24,6.9,24,20.4
	C398.6,334.8,386.9,342.4,374.6,342.4L374.6,342.4z M374.7,308.9c-7.8,0-16.1,3.9-16.1,12.8c0,8.9,8.5,12.8,16.2,12.8
	c7.7,0,16-4.6,16-13.1S382.2,308.8,374.7,308.9L374.7,308.9z"/>
<polygon class="st0" points="324.1,341.1 324.1,324.8 302.9,324.8 302.9,341.1 295.2,341.1 295.2,302.2 302.9,302.2 302.9,316.9 
	324.1,316.9 324.1,302.2 331.8,302.2 331.8,341.1 "/>
<polygon class="st0" points="218.6,341.1 196.9,314.7 196.9,341.1 189.2,341.1 189.2,302.2 196.9,302.2 218.6,328.5 218.6,302.2 
	226.3,302.2 226.3,341.1 "/>
<polygon class="st0" points="264.3,309.9 264.3,341.1 256.6,341.1 256.6,309.9 242.4,309.9 242.4,302.2 279,302.2 279,309.9 "/>
<polygon class="st0" points="137.8,341.1 137.8,302.2 172.2,302.2 172.2,310 145.5,310 145.5,317.2 159.6,317.2 159.6,324.9 
	145.5,324.9 145.5,333.3 173.2,333.3 173.2,341.1 "/>
<polyline class="st1" points="97.5,300.4 97.5,300.4 97.5,300.4 97.5,300.4 97.5,300.4 97.4,300.3 97.4,300.3 59.5,278.5 
	59.5,278.5 21.6,300.3 21.6,300.3 21.5,300.4 21.5,300.4 33.5,307.3 33.5,307.3 59.5,292.3 73.4,300.4 47.4,315.4 47.4,315.4 
	59.5,322.3 59.5,322.3 59.5,322.3 59.5,322.3 59.5,322.3 59.5,322.3 97.5,300.4 "/>
<polygon class="st2" points="33.5,334.7 33.5,334.7 33.5,307.3 33.5,307.3 21.5,300.4 21.5,300.4 21.5,300.4 21.5,341.6 21.5,341.6 
	59.5,363.5 59.5,349.7 "/>
<polygon class="st0" points="97.4,341.6 97.4,327.8 59.5,349.7 59.5,363.5 97.5,341.6 97.5,341.6 "/>
</svg>
